<?xml version="1.0" encoding="UTF-8" standalone="no"?>
<!DOCTYPE svg PUBLIC "-//W3C//DTD SVG 1.1//EN"
 "http://www.w3.org/Graphics/SVG/1.1/DTD/svg11.dtd">
<!-- Generated by graphviz version 2.44.1 (20200629.0846)
 -->
<!-- Title: result Pages: 1 -->
<svg width="300pt" height="235pt"
 viewBox="0.00 0.00 216.00 169.38" xmlns="http://www.w3.org/2000/svg" xmlns:xlink="http://www.w3.org/1999/xlink">
<g id="graph0" class="graph" transform="scale(1.08 1.08) rotate(0) translate(4 214)">
<title>result</title>
<polygon fill="white" stroke="transparent" points="-4,4 -4,-214 274,-214 274,4 -4,4"/>
<text text-anchor="middle" x="135" y="-10" font-family="Helvetica,sans-Serif" font-style="oblique" font-size="20.00">Pattern 11 (8,8)</text>
<!-- 0 -->
<g id="node1" class="node">
<title>0</title>
<polygon fill="#98f5ff" stroke="#98f5ff" points="198,-210 144,-210 144,-174 198,-174 198,-210"/>
<text text-anchor="middle" x="171" y="-188.3" font-family="Helvetica-Outline" font-size="14.00">C</text>
</g>
<!-- 1 -->
<g id="node2" class="node">
<title>1</title>
<polygon fill="#98f5ff" stroke="#98f5ff" points="54,-138 0,-138 0,-102 54,-102 54,-138"/>
<text text-anchor="middle" x="27" y="-116.3" font-family="Helvetica-Outline" font-size="14.00">C</text>
</g>
<!-- 0&#45;&#45;1 -->
<g id="edge1" class="edge">
<title>0&#45;&#45;1</title>
<path fill="none" stroke="black" d="M143.91,-177.83C118.33,-165.4 80.16,-146.84 54.45,-134.35"/>
</g>
<!-- 2 -->
<g id="node3" class="node">
<title>2</title>
<polygon fill="#98f5ff" stroke="#98f5ff" points="198,-138 144,-138 144,-102 198,-102 198,-138"/>
<text text-anchor="middle" x="171" y="-116.3" font-family="Helvetica-Outline" font-size="14.00">C</text>
</g>
<!-- 0&#45;&#45;2 -->
<g id="edge2" class="edge">
<title>0&#45;&#45;2</title>
<path fill="none" stroke="black" d="M171,-173.7C171,-162.85 171,-148.92 171,-138.1"/>
</g>
<!-- 7 -->
<g id="node8" class="node">
<title>7</title>
<polygon fill="#98f5ff" stroke="#98f5ff" points="270,-138 216,-138 216,-102 270,-102 270,-138"/>
<text text-anchor="middle" x="243" y="-116.3" font-family="Helvetica-Outline" font-size="14.00">S</text>
</g>
<!-- 0&#45;&#45;7 -->
<g id="edge3" class="edge">
<title>0&#45;&#45;7</title>
<path fill="none" stroke="black" d="M188.8,-173.7C199.96,-162.85 214.29,-148.92 225.41,-138.1"/>
</g>
<!-- 4 -->
<g id="node5" class="node">
<title>4</title>
<polygon fill="#98f5ff" stroke="#98f5ff" points="90,-66 36,-66 36,-30 90,-30 90,-66"/>
<text text-anchor="middle" x="63" y="-44.3" font-family="Helvetica-Outline" font-size="14.00">C</text>
</g>
<!-- 1&#45;&#45;4 -->
<g id="edge4" class="edge">
<title>1&#45;&#45;4</title>
<path fill="none" stroke="black" d="M35.9,-101.7C41.48,-90.85 48.64,-76.92 54.2,-66.1"/>
</g>
<!-- 5 -->
<g id="node6" class="node">
<title>5</title>
<polygon fill="#98f5ff" stroke="#98f5ff" points="162,-66 108,-66 108,-30 162,-30 162,-66"/>
<text text-anchor="middle" x="135" y="-44.3" font-family="Helvetica-Outline" font-size="14.00">C</text>
</g>
<!-- 2&#45;&#45;5 -->
<g id="edge5" class="edge">
<title>2&#45;&#45;5</title>
<path fill="none" stroke="black" d="M162.1,-101.7C156.52,-90.85 149.36,-76.92 143.8,-66.1"/>
</g>
<!-- 3 -->
<g id="node4" class="node">
<title>3</title>
<polygon fill="#98f5ff" stroke="#98f5ff" points="126,-138 72,-138 72,-102 126,-102 126,-138"/>
<text text-anchor="middle" x="99" y="-116.3" font-family="Helvetica-Outline" font-size="14.00">C</text>
</g>
<!-- 3&#45;&#45;4 -->
<g id="edge6" class="edge">
<title>3&#45;&#45;4</title>
<path fill="none" stroke="black" d="M90.1,-101.7C84.52,-90.85 77.36,-76.92 71.8,-66.1"/>
</g>
<!-- 3&#45;&#45;5 -->
<g id="edge7" class="edge">
<title>3&#45;&#45;5</title>
<path fill="none" stroke="black" d="M107.9,-101.7C113.48,-90.85 120.64,-76.92 126.2,-66.1"/>
</g>
<!-- 6 -->
<g id="node7" class="node">
<title>6</title>
<polygon fill="#98f5ff" stroke="#98f5ff" points="270,-210 216,-210 216,-174 270,-174 270,-210"/>
<text text-anchor="middle" x="243" y="-188.3" font-family="Helvetica-Outline" font-size="14.00">O</text>
</g>
<!-- 6&#45;&#45;7 -->
<g id="edge8" class="edge">
<title>6&#45;&#45;7</title>
<path fill="none" stroke="black" d="M243,-173.7C243,-162.85 243,-148.92 243,-138.1"/>
</g>
</g>
</svg>
